<mxfile host="app.diagrams.net" modified="2022-07-03T21:25:43.882Z" agent="5.0 (Windows NT 10.0; Win64; x64) AppleWebKit/537.36 (KHTML, like Gecko) Chrome/103.0.0.0 Safari/537.36" etag="13HEGBKxyO9JrTlW4zIa" version="20.0.4" type="github">
  <diagram id="SIuOCTj9WiTIK6r_OFzA" name="Page-1">
    <mxGraphModel dx="10833" dy="-2896" grid="0" gridSize="10" guides="1" tooltips="1" connect="1" arrows="1" fold="1" page="0" pageScale="1" pageWidth="850" pageHeight="1100" math="0" shadow="0">
      <root>
        <mxCell id="0" />
        <mxCell id="1" parent="0" />
        <mxCell id="-bKTiDUC1StJp4o5c5Mv-105" value="" style="shape=cube;whiteSpace=wrap;html=1;boundedLbl=1;backgroundOutline=1;darkOpacity=0.05;darkOpacity2=0.1;dashed=1;fillColor=#e1d5e7;strokeColor=#9673a6;size=20;" vertex="1" parent="1">
          <mxGeometry x="-6864" y="5330" width="290" height="540" as="geometry" />
        </mxCell>
        <mxCell id="-bKTiDUC1StJp4o5c5Mv-103" value="" style="shape=cube;whiteSpace=wrap;html=1;boundedLbl=1;backgroundOutline=1;darkOpacity=0.05;darkOpacity2=0.1;dashed=1;fillColor=#f5f5f5;strokeColor=#666666;size=20;fontColor=#333333;" vertex="1" parent="1">
          <mxGeometry x="-6830" y="5362.5" width="290" height="540" as="geometry" />
        </mxCell>
        <mxCell id="-bKTiDUC1StJp4o5c5Mv-62" value="" style="shape=datastore;whiteSpace=wrap;html=1;labelPosition=center;verticalLabelPosition=bottom;align=center;verticalAlign=top;fontSize=35;fillColor=#eeeeee;strokeColor=#36393d;" vertex="1" parent="1">
          <mxGeometry x="-6946.5" y="5020" width="220" height="190" as="geometry" />
        </mxCell>
        <UserObject label="&lt;font&gt;&lt;span style=&quot;font-size: 48px&quot;&gt;Feature Extraction&lt;/span&gt;&lt;br&gt;&lt;/font&gt;" lucidchartObjectId="th2AVY_x9sRy" id="-bKTiDUC1StJp4o5c5Mv-67">
          <mxCell style="html=1;overflow=block;blockSpacing=1;whiteSpace=wrap;;whiteSpace=wrap;fontSize=30;fontColor=default;fontStyle=1;spacing=3.8;strokeOpacity=0;fillOpacity=0;rounded=1;absoluteArcSize=1;arcSize=9;fillColor=default;strokeWidth=2.3;shadow=1;strokeColor=default;" vertex="1" parent="1">
            <mxGeometry x="-6255.5" y="5005" width="510" height="60" as="geometry" />
          </mxCell>
        </UserObject>
        <mxCell id="-bKTiDUC1StJp4o5c5Mv-69" value="Kalman Filter" style="shape=parallelogram;perimeter=parallelogramPerimeter;whiteSpace=wrap;html=1;fixedSize=1;fontSize=32;fillColor=#dae8fc;strokeColor=#6c8ebf;" vertex="1" parent="1">
          <mxGeometry x="-6597" y="5086" width="281" height="90" as="geometry" />
        </mxCell>
        <mxCell id="-bKTiDUC1StJp4o5c5Mv-70" value="Gray Filter" style="shape=parallelogram;perimeter=parallelogramPerimeter;whiteSpace=wrap;html=1;fixedSize=1;fontSize=32;fillColor=#dae8fc;strokeColor=#6c8ebf;" vertex="1" parent="1">
          <mxGeometry x="-5630" y="5086" width="281" height="90" as="geometry" />
        </mxCell>
        <mxCell id="-bKTiDUC1StJp4o5c5Mv-71" value="FFT" style="shape=parallelogram;perimeter=parallelogramPerimeter;whiteSpace=wrap;html=1;fixedSize=1;fontSize=32;fillColor=#dae8fc;strokeColor=#6c8ebf;" vertex="1" parent="1">
          <mxGeometry x="-6273.5" y="5086" width="281" height="90" as="geometry" />
        </mxCell>
        <mxCell id="-bKTiDUC1StJp4o5c5Mv-72" value="Recursive CWT" style="shape=parallelogram;perimeter=parallelogramPerimeter;whiteSpace=wrap;html=1;fixedSize=1;fontSize=32;fillColor=#dae8fc;strokeColor=#6c8ebf;" vertex="1" parent="1">
          <mxGeometry x="-5953" y="5086" width="281" height="90" as="geometry" />
        </mxCell>
        <UserObject label="&lt;font&gt;&lt;span style=&quot;font-size: 48px&quot;&gt;Data preparation&lt;/span&gt;&lt;br&gt;&lt;/font&gt;" lucidchartObjectId="th2AVY_x9sRy" id="-bKTiDUC1StJp4o5c5Mv-73">
          <mxCell style="html=1;overflow=block;blockSpacing=1;whiteSpace=wrap;;whiteSpace=wrap;fontSize=30;fontColor=default;fontStyle=1;spacing=3.8;strokeOpacity=0;fillOpacity=0;rounded=1;absoluteArcSize=1;arcSize=9;fillColor=default;strokeWidth=2.3;shadow=1;strokeColor=default;" vertex="1" parent="1">
            <mxGeometry x="-6246" y="5228" width="510" height="60" as="geometry" />
          </mxCell>
        </UserObject>
        <mxCell id="-bKTiDUC1StJp4o5c5Mv-74" value="Target Labeling" style="rounded=1;whiteSpace=wrap;html=1;fontSize=35;strokeColor=#36393d;fillColor=#eeeeee;" vertex="1" parent="1">
          <mxGeometry x="-5685.5" y="5362.5" width="295" height="80" as="geometry" />
        </mxCell>
        <mxCell id="-bKTiDUC1StJp4o5c5Mv-75" value="Data Split" style="rounded=1;whiteSpace=wrap;html=1;fontSize=35;strokeColor=#36393d;fillColor=#eeeeee;" vertex="1" parent="1">
          <mxGeometry x="-6240.75" y="5372.5" width="295" height="80" as="geometry" />
        </mxCell>
        <mxCell id="-bKTiDUC1StJp4o5c5Mv-76" value="" style="html=1;outlineConnect=0;whiteSpace=wrap;fillColor=#AFFFAF;shape=mxgraph.archimate3.process;fontSize=35;strokeColor=#000000;dashed=1;strokeWidth=1;rotation=90;" vertex="1" parent="1">
          <mxGeometry x="-5610" y="5250" width="142.5" height="72.5" as="geometry" />
        </mxCell>
        <mxCell id="-bKTiDUC1StJp4o5c5Mv-77" value="" style="html=1;outlineConnect=0;whiteSpace=wrap;fillColor=#AFFFAF;shape=mxgraph.archimate3.process;fontSize=35;strokeColor=#000000;dashed=1;strokeWidth=1;rotation=-181;" vertex="1" parent="1">
          <mxGeometry x="-5881" y="5385.62" width="135.5" height="53.75" as="geometry" />
        </mxCell>
        <mxCell id="-bKTiDUC1StJp4o5c5Mv-78" value="" style="html=1;outlineConnect=0;whiteSpace=wrap;fillColor=#AFFFAF;shape=mxgraph.archimate3.process;fontSize=35;strokeColor=#000000;dashed=1;strokeWidth=1;rotation=0;" vertex="1" parent="1">
          <mxGeometry x="-6718.5" y="5090" width="108.5" height="75" as="geometry" />
        </mxCell>
        <mxCell id="-bKTiDUC1StJp4o5c5Mv-80" value="" style="endArrow=classic;html=1;rounded=0;fontSize=32;exitX=0.5;exitY=1;exitDx=0;exitDy=0;fillColor=#008a00;strokeColor=#005700;strokeWidth=2;entryX=0;entryY=0;entryDx=90;entryDy=0;entryPerimeter=0;" edge="1" parent="1" source="-bKTiDUC1StJp4o5c5Mv-75" target="-bKTiDUC1StJp4o5c5Mv-81">
          <mxGeometry width="50" height="50" relative="1" as="geometry">
            <mxPoint x="-5886.75" y="6032.48" as="sourcePoint" />
            <mxPoint x="-5836.75" y="5982.48" as="targetPoint" />
          </mxGeometry>
        </mxCell>
        <mxCell id="-bKTiDUC1StJp4o5c5Mv-81" value="Test Set" style="shape=note;whiteSpace=wrap;html=1;backgroundOutline=1;darkOpacity=0.05;dashed=1;fontSize=35;strokeColor=#23445d;strokeWidth=1;fillColor=#bac8d3;" vertex="1" parent="1">
          <mxGeometry x="-6071" y="5505" width="210" height="85" as="geometry" />
        </mxCell>
        <mxCell id="-bKTiDUC1StJp4o5c5Mv-82" value="Training&lt;br&gt;Set" style="shape=note;whiteSpace=wrap;html=1;backgroundOutline=1;darkOpacity=0.05;dashed=1;fontSize=35;strokeColor=#23445d;strokeWidth=1;fillColor=#bac8d3;" vertex="1" parent="1">
          <mxGeometry x="-6312" y="5502.5" width="210" height="90" as="geometry" />
        </mxCell>
        <mxCell id="-bKTiDUC1StJp4o5c5Mv-83" value="" style="endArrow=classic;html=1;rounded=0;fontSize=32;fillColor=#008a00;strokeColor=#005700;exitX=0.5;exitY=1;exitDx=0;exitDy=0;entryX=0.5;entryY=0;entryDx=0;entryDy=0;entryPerimeter=0;strokeWidth=2;" edge="1" parent="1" source="-bKTiDUC1StJp4o5c5Mv-75" target="-bKTiDUC1StJp4o5c5Mv-82">
          <mxGeometry width="50" height="50" relative="1" as="geometry">
            <mxPoint x="-5946.75" y="6002.48" as="sourcePoint" />
            <mxPoint x="-6275.75" y="5419.37" as="targetPoint" />
          </mxGeometry>
        </mxCell>
        <mxCell id="-bKTiDUC1StJp4o5c5Mv-96" value="" style="shape=cube;whiteSpace=wrap;html=1;boundedLbl=1;backgroundOutline=1;darkOpacity=0.05;darkOpacity2=0.1;dashed=1;fillColor=#e1d5e7;strokeColor=#9673a6;size=30;" vertex="1" parent="1">
          <mxGeometry x="-6796" y="5402.5" width="290" height="540" as="geometry" />
        </mxCell>
        <mxCell id="-bKTiDUC1StJp4o5c5Mv-97" value="&lt;font style=&quot;font-size: 32px;&quot;&gt;SVC&lt;/font&gt;" style="shape=cube;whiteSpace=wrap;html=1;boundedLbl=1;backgroundOutline=1;darkOpacity=0.05;darkOpacity2=0.1;dashed=1;fillColor=#f5f5f5;strokeColor=#666666;size=20;fontColor=#333333;" vertex="1" parent="1">
          <mxGeometry x="-6706" y="5442.5" width="150" height="80" as="geometry" />
        </mxCell>
        <mxCell id="-bKTiDUC1StJp4o5c5Mv-98" value="&lt;font style=&quot;font-size: 32px;&quot;&gt;DNN&lt;/font&gt;" style="shape=cube;whiteSpace=wrap;html=1;boundedLbl=1;backgroundOutline=1;darkOpacity=0.05;darkOpacity2=0.1;dashed=1;fillColor=#f5f5f5;strokeColor=#666666;size=20;fontColor=#333333;" vertex="1" parent="1">
          <mxGeometry x="-6706" y="5532.5" width="150" height="80" as="geometry" />
        </mxCell>
        <mxCell id="-bKTiDUC1StJp4o5c5Mv-99" value="&lt;font style=&quot;font-size: 32px;&quot;&gt;CNN&lt;/font&gt;" style="shape=cube;whiteSpace=wrap;html=1;boundedLbl=1;backgroundOutline=1;darkOpacity=0.05;darkOpacity2=0.1;dashed=1;fillColor=#f5f5f5;strokeColor=#666666;size=20;fontColor=#333333;" vertex="1" parent="1">
          <mxGeometry x="-6704" y="5622.5" width="150" height="80" as="geometry" />
        </mxCell>
        <mxCell id="-bKTiDUC1StJp4o5c5Mv-100" value="&lt;font style=&quot;font-size: 32px;&quot;&gt;XGBoost&lt;/font&gt;" style="shape=cube;whiteSpace=wrap;html=1;boundedLbl=1;backgroundOutline=1;darkOpacity=0.05;darkOpacity2=0.1;dashed=1;fillColor=#f5f5f5;strokeColor=#666666;size=20;fontColor=#333333;" vertex="1" parent="1">
          <mxGeometry x="-6726.5" y="5822.5" width="195" height="100" as="geometry" />
        </mxCell>
        <mxCell id="-bKTiDUC1StJp4o5c5Mv-101" value="&lt;font style=&quot;font-size: 32px;&quot;&gt;Random Forest&lt;/font&gt;" style="shape=cube;whiteSpace=wrap;html=1;boundedLbl=1;backgroundOutline=1;darkOpacity=0.05;darkOpacity2=0.1;dashed=1;fillColor=#f5f5f5;strokeColor=#666666;size=20;fontColor=#333333;" vertex="1" parent="1">
          <mxGeometry x="-6725" y="5712.5" width="195" height="100" as="geometry" />
        </mxCell>
        <mxCell id="-bKTiDUC1StJp4o5c5Mv-104" value="" style="html=1;outlineConnect=0;whiteSpace=wrap;fillColor=#AFFFAF;shape=mxgraph.archimate3.process;fontSize=35;strokeColor=#000000;dashed=1;strokeWidth=1;rotation=-180;" vertex="1" parent="1">
          <mxGeometry x="-6461.5" y="5512.5" width="90" height="75" as="geometry" />
        </mxCell>
        <UserObject label="&lt;font&gt;&lt;span style=&quot;font-weight: normal;&quot;&gt;&lt;font style=&quot;font-size: 32px;&quot;&gt;Model Training&lt;/font&gt;&lt;/span&gt;&lt;br&gt;&lt;/font&gt;" lucidchartObjectId="th2AVY_x9sRy" id="-bKTiDUC1StJp4o5c5Mv-106">
          <mxCell style="html=1;overflow=block;blockSpacing=1;whiteSpace=wrap;;whiteSpace=wrap;fontSize=30;fontColor=default;fontStyle=1;spacing=3.8;strokeOpacity=0;fillOpacity=0;rounded=1;absoluteArcSize=1;arcSize=9;fillColor=default;strokeWidth=2.3;shadow=1;strokeColor=default;" vertex="1" parent="1">
            <mxGeometry x="-6872" y="5265" width="366" height="60" as="geometry" />
          </mxCell>
        </UserObject>
        <UserObject label="&lt;font&gt;&lt;span style=&quot;font-weight: normal;&quot;&gt;&lt;font style=&quot;font-size: 32px;&quot;&gt;Dataset&lt;/font&gt;&lt;/span&gt;&lt;br&gt;&lt;/font&gt;" lucidchartObjectId="th2AVY_x9sRy" id="-bKTiDUC1StJp4o5c5Mv-107">
          <mxCell style="html=1;overflow=block;blockSpacing=1;whiteSpace=wrap;;whiteSpace=wrap;fontSize=30;fontColor=default;fontStyle=1;spacing=3.8;strokeOpacity=0;fillOpacity=0;rounded=1;absoluteArcSize=1;arcSize=9;fillColor=default;strokeWidth=2.3;shadow=1;strokeColor=default;" vertex="1" parent="1">
            <mxGeometry x="-6927.5" y="5105" width="182" height="60" as="geometry" />
          </mxCell>
        </UserObject>
        <mxCell id="-bKTiDUC1StJp4o5c5Mv-109" value="" style="html=1;outlineConnect=0;whiteSpace=wrap;fillColor=#AFFFAF;shape=mxgraph.archimate3.process;fontSize=35;strokeColor=#000000;dashed=1;strokeWidth=1;rotation=1;" vertex="1" parent="1">
          <mxGeometry x="-6481.5" y="5680.35" width="130" height="75" as="geometry" />
        </mxCell>
        <mxCell id="-bKTiDUC1StJp4o5c5Mv-110" value="&lt;font style=&quot;font-size: 32px;&quot;&gt;Evaluate with Test Data&lt;/font&gt;" style="shape=cube;whiteSpace=wrap;html=1;boundedLbl=1;backgroundOutline=1;darkOpacity=0.05;darkOpacity2=0.1;dashed=1;fontSize=35;strokeColor=#36393d;strokeWidth=1;fillColor=#eeeeee;" vertex="1" parent="1">
          <mxGeometry x="-6321.5" y="5662.85" width="351" height="110" as="geometry" />
        </mxCell>
        <mxCell id="-bKTiDUC1StJp4o5c5Mv-111" value="" style="endArrow=classic;html=1;rounded=0;fontSize=32;fillColor=#008a00;strokeColor=#005700;strokeWidth=2;entryX=0;entryY=0;entryDx=165.5;entryDy=0;entryPerimeter=0;" edge="1" parent="1" target="-bKTiDUC1StJp4o5c5Mv-110">
          <mxGeometry width="50" height="50" relative="1" as="geometry">
            <mxPoint x="-5966" y="5589" as="sourcePoint" />
            <mxPoint x="-6012.878205128205" y="5517.5" as="targetPoint" />
            <Array as="points">
              <mxPoint x="-5966" y="5630" />
              <mxPoint x="-6156" y="5630" />
            </Array>
          </mxGeometry>
        </mxCell>
        <mxCell id="-bKTiDUC1StJp4o5c5Mv-112" value="" style="html=1;outlineConnect=0;whiteSpace=wrap;fillColor=#AFFFAF;shape=mxgraph.archimate3.process;fontSize=35;strokeColor=#000000;dashed=1;strokeWidth=1;rotation=0;" vertex="1" parent="1">
          <mxGeometry x="-5940" y="5680.35" width="120" height="75" as="geometry" />
        </mxCell>
        <mxCell id="-bKTiDUC1StJp4o5c5Mv-113" value="&lt;table border=&quot;1&quot; width=&quot;100%&quot; height=&quot;100%&quot; cellpadding=&quot;4&quot; style=&quot;width:100%;height:100%;border-collapse:collapse;&quot;&gt;&lt;tbody&gt;&lt;tr&gt;&lt;th align=&quot;center&quot;&gt;&lt;b&gt;Model Evaluation Metrics&lt;/b&gt;&lt;/th&gt;&lt;/tr&gt;&lt;tr&gt;&lt;td align=&quot;center&quot;&gt;Accuracy&lt;br&gt;&lt;/td&gt;&lt;/tr&gt;&lt;tr&gt;&lt;td align=&quot;center&quot;&gt;Recall&lt;br&gt;Precision&lt;br&gt;F1 Score&lt;br&gt;&lt;/td&gt;&lt;/tr&gt;&lt;/tbody&gt;&lt;/table&gt;" style="text;html=1;strokeColor=none;fillColor=none;overflow=fill;dashed=1;fontSize=35;" vertex="1" parent="1">
          <mxGeometry x="-5790" y="5522.5" width="450" height="280" as="geometry" />
        </mxCell>
        <mxCell id="-bKTiDUC1StJp4o5c5Mv-116" value="" style="rounded=0;whiteSpace=wrap;html=1;dashed=1;fontSize=32;" vertex="1" parent="1">
          <mxGeometry x="-6486" y="5960" width="620" height="90" as="geometry" />
        </mxCell>
        <mxCell id="-bKTiDUC1StJp4o5c5Mv-117" value="1" style="ellipse;whiteSpace=wrap;html=1;aspect=fixed;dashed=1;fontSize=32;fillColor=#dae8fc;strokeColor=#6c8ebf;" vertex="1" parent="1">
          <mxGeometry x="-6476.5" y="5980" width="50" height="50" as="geometry" />
        </mxCell>
        <mxCell id="-bKTiDUC1StJp4o5c5Mv-118" value="2" style="ellipse;whiteSpace=wrap;html=1;aspect=fixed;dashed=1;fontSize=32;fillColor=#dae8fc;strokeColor=#6c8ebf;" vertex="1" parent="1">
          <mxGeometry x="-6413" y="5980" width="50" height="50" as="geometry" />
        </mxCell>
        <mxCell id="-bKTiDUC1StJp4o5c5Mv-119" value="3" style="ellipse;whiteSpace=wrap;html=1;aspect=fixed;dashed=1;fontSize=32;fillColor=#dae8fc;strokeColor=#6c8ebf;" vertex="1" parent="1">
          <mxGeometry x="-6345.75" y="5980" width="50" height="50" as="geometry" />
        </mxCell>
        <mxCell id="-bKTiDUC1StJp4o5c5Mv-120" value="95" style="ellipse;whiteSpace=wrap;html=1;aspect=fixed;dashed=1;fontSize=32;fillColor=#dae8fc;strokeColor=#6c8ebf;" vertex="1" parent="1">
          <mxGeometry x="-5931" y="5980" width="50" height="50" as="geometry" />
        </mxCell>
        <mxCell id="-bKTiDUC1StJp4o5c5Mv-121" value="4" style="ellipse;whiteSpace=wrap;html=1;aspect=fixed;dashed=1;fontSize=32;fillColor=#dae8fc;strokeColor=#6c8ebf;" vertex="1" parent="1">
          <mxGeometry x="-6276" y="5980" width="50" height="50" as="geometry" />
        </mxCell>
        <mxCell id="-bKTiDUC1StJp4o5c5Mv-122" value="" style="endArrow=none;dashed=1;html=1;dashPattern=1 3;strokeWidth=2;rounded=0;fontSize=32;exitX=1;exitY=0.5;exitDx=0;exitDy=0;entryX=0;entryY=0.5;entryDx=0;entryDy=0;" edge="1" parent="1" source="-bKTiDUC1StJp4o5c5Mv-121" target="-bKTiDUC1StJp4o5c5Mv-120">
          <mxGeometry width="50" height="50" relative="1" as="geometry">
            <mxPoint x="-5965" y="6290" as="sourcePoint" />
            <mxPoint x="-5915" y="6240" as="targetPoint" />
          </mxGeometry>
        </mxCell>
        <mxCell id="-bKTiDUC1StJp4o5c5Mv-125" value="Explainable AI" style="shape=cylinder3;whiteSpace=wrap;html=1;boundedLbl=1;backgroundOutline=1;size=31.545510031960475;fontSize=35;strokeColor=#56517e;fillColor=#d0cee2;" vertex="1" parent="1">
          <mxGeometry x="-5686" y="5902.5" width="270" height="157.5" as="geometry" />
        </mxCell>
        <mxCell id="-bKTiDUC1StJp4o5c5Mv-126" value="" style="html=1;outlineConnect=0;whiteSpace=wrap;fillColor=#AFFFAF;shape=mxgraph.archimate3.process;fontSize=35;strokeColor=#000000;dashed=1;strokeWidth=1;rotation=90;" vertex="1" parent="1">
          <mxGeometry x="-5615" y="5817.5" width="100" height="75" as="geometry" />
        </mxCell>
        <mxCell id="-bKTiDUC1StJp4o5c5Mv-129" value="SHAP" style="html=1;whiteSpace=wrap;shape=isoCube2;backgroundOutline=1;isoAngle=22.51700680272084;fontSize=35;strokeColor=#82b366;fillColor=#d5e8d4;" vertex="1" parent="1">
          <mxGeometry x="-5790" y="6040" width="180" height="160" as="geometry" />
        </mxCell>
        <mxCell id="-bKTiDUC1StJp4o5c5Mv-130" value="LIME" style="html=1;whiteSpace=wrap;shape=isoCube2;backgroundOutline=1;isoAngle=22.51700680272084;fontSize=35;strokeColor=#82b366;fillColor=#d5e8d4;" vertex="1" parent="1">
          <mxGeometry x="-5490" y="6040" width="180" height="160" as="geometry" />
        </mxCell>
        <UserObject label="&lt;font&gt;&lt;span style=&quot;font-weight: normal;&quot;&gt;&lt;font style=&quot;font-size: 32px;&quot;&gt;Indoor Localization&lt;/font&gt;&lt;/span&gt;&lt;br&gt;&lt;/font&gt;" lucidchartObjectId="th2AVY_x9sRy" id="-bKTiDUC1StJp4o5c5Mv-131">
          <mxCell style="html=1;overflow=block;blockSpacing=1;whiteSpace=wrap;;whiteSpace=wrap;fontSize=30;fontColor=default;fontStyle=1;spacing=3.8;strokeOpacity=0;fillOpacity=0;rounded=1;absoluteArcSize=1;arcSize=9;fillColor=default;strokeWidth=2.3;shadow=1;strokeColor=default;" vertex="1" parent="1">
            <mxGeometry x="-6367" y="6050" width="366" height="60" as="geometry" />
          </mxCell>
        </UserObject>
        <mxCell id="-bKTiDUC1StJp4o5c5Mv-133" value="" style="endArrow=classic;html=1;rounded=0;fontSize=32;fillColor=#008a00;strokeColor=#005700;exitX=0.5;exitY=1;exitDx=0;exitDy=0;strokeWidth=2;exitPerimeter=0;entryX=1;entryY=0.5;entryDx=0;entryDy=0;entryPerimeter=0;" edge="1" parent="1" source="-bKTiDUC1StJp4o5c5Mv-125" target="-bKTiDUC1StJp4o5c5Mv-129">
          <mxGeometry width="50" height="50" relative="1" as="geometry">
            <mxPoint x="-6083.25" y="5462.5" as="sourcePoint" />
            <mxPoint x="-5600" y="6120" as="targetPoint" />
            <Array as="points">
              <mxPoint x="-5550" y="6120" />
            </Array>
          </mxGeometry>
        </mxCell>
        <mxCell id="-bKTiDUC1StJp4o5c5Mv-134" value="" style="endArrow=classic;html=1;rounded=0;fontSize=32;fillColor=#008a00;strokeColor=#005700;strokeWidth=2;exitX=0.5;exitY=1;exitDx=0;exitDy=0;exitPerimeter=0;entryX=0;entryY=0.5;entryDx=0;entryDy=0;entryPerimeter=0;" edge="1" parent="1" source="-bKTiDUC1StJp4o5c5Mv-125" target="-bKTiDUC1StJp4o5c5Mv-130">
          <mxGeometry width="50" height="50" relative="1" as="geometry">
            <mxPoint x="-5500" y="6100" as="sourcePoint" />
            <mxPoint x="-5550" y="6210" as="targetPoint" />
            <Array as="points">
              <mxPoint x="-5551" y="6120" />
            </Array>
          </mxGeometry>
        </mxCell>
        <mxCell id="-bKTiDUC1StJp4o5c5Mv-135" value="" style="endArrow=classic;html=1;rounded=0;fontSize=32;fillColor=#008a00;strokeColor=#005700;exitX=0;exitY=0;exitDx=0;exitDy=102.35224498401976;entryX=1;entryY=0.5;entryDx=0;entryDy=0;strokeWidth=2;exitPerimeter=0;" edge="1" parent="1" source="-bKTiDUC1StJp4o5c5Mv-125" target="-bKTiDUC1StJp4o5c5Mv-116">
          <mxGeometry width="50" height="50" relative="1" as="geometry">
            <mxPoint x="-6083.25" y="5462.5" as="sourcePoint" />
            <mxPoint x="-6216" y="5512.5" as="targetPoint" />
          </mxGeometry>
        </mxCell>
        <mxCell id="-bKTiDUC1StJp4o5c5Mv-137" value="" style="shape=flexArrow;endArrow=classic;startArrow=classic;html=1;rounded=0;fontSize=32;strokeWidth=1;fillColor=#cdeb8b;strokeColor=#36393d;dashed=1;exitX=1;exitY=0.5;exitDx=0;exitDy=0;" edge="1" parent="1" source="-bKTiDUC1StJp4o5c5Mv-69" target="-bKTiDUC1StJp4o5c5Mv-71">
          <mxGeometry width="100" height="100" relative="1" as="geometry">
            <mxPoint x="-6276" y="5293" as="sourcePoint" />
            <mxPoint x="-6176" y="5193" as="targetPoint" />
          </mxGeometry>
        </mxCell>
        <mxCell id="-bKTiDUC1StJp4o5c5Mv-138" value="" style="shape=flexArrow;endArrow=classic;startArrow=classic;html=1;rounded=0;fontSize=32;strokeWidth=1;fillColor=#cdeb8b;strokeColor=#36393d;dashed=1;exitX=1;exitY=0.5;exitDx=0;exitDy=0;" edge="1" parent="1">
          <mxGeometry width="100" height="100" relative="1" as="geometry">
            <mxPoint x="-5682" y="5134.63" as="sourcePoint" />
            <mxPoint x="-5619.5" y="5134.63" as="targetPoint" />
          </mxGeometry>
        </mxCell>
        <mxCell id="-bKTiDUC1StJp4o5c5Mv-139" value="" style="shape=flexArrow;endArrow=classic;startArrow=classic;html=1;rounded=0;fontSize=32;strokeWidth=1;fillColor=#cdeb8b;strokeColor=#36393d;dashed=1;exitX=1;exitY=0.5;exitDx=0;exitDy=0;" edge="1" parent="1">
          <mxGeometry width="100" height="100" relative="1" as="geometry">
            <mxPoint x="-6006" y="5134.63" as="sourcePoint" />
            <mxPoint x="-5943.5" y="5134.63" as="targetPoint" />
          </mxGeometry>
        </mxCell>
        <mxCell id="-bKTiDUC1StJp4o5c5Mv-140" value="" style="endArrow=classic;html=1;rounded=0;fontSize=32;exitX=0;exitY=0;exitDx=185.5;exitDy=110;fillColor=#008a00;strokeColor=#005700;strokeWidth=2;entryX=0.564;entryY=-0.044;entryDx=0;entryDy=0;entryPerimeter=0;exitPerimeter=0;" edge="1" parent="1" source="-bKTiDUC1StJp4o5c5Mv-110" target="-bKTiDUC1StJp4o5c5Mv-116">
          <mxGeometry width="50" height="50" relative="1" as="geometry">
            <mxPoint x="-6083.25" y="5462.5" as="sourcePoint" />
            <mxPoint x="-5971" y="5515" as="targetPoint" />
          </mxGeometry>
        </mxCell>
        <mxCell id="-bKTiDUC1StJp4o5c5Mv-141" value="Predictions" style="edgeLabel;html=1;align=center;verticalAlign=middle;resizable=0;points=[];fontSize=32;" vertex="1" connectable="0" parent="-bKTiDUC1StJp4o5c5Mv-140">
          <mxGeometry x="-0.2317" y="-1" relative="1" as="geometry">
            <mxPoint x="4" y="26" as="offset" />
          </mxGeometry>
        </mxCell>
      </root>
    </mxGraphModel>
  </diagram>
</mxfile>
